<svg width="268" height="192" viewBox="0 0 268 192" fill="none" xmlns="http://www.w3.org/2000/svg">
<path d="M74.0742 132.469C73.8164 133.195 73.4766 133.945 73.0547 134.719C72.6328 135.492 72.1523 136.195 71.6133 136.828C71.0977 137.461 70.5234 137.988 69.8906 138.41C69.2812 138.809 68.625 139.008 67.9219 139.008H2.14453C1.44141 139.008 0.925781 138.809 0.597656 138.41C0.269531 137.988 0.0820312 137.578 0.0351562 137.18C0.0117188 136.758 0 136.465 0 136.301C0 135.809 0.0585938 135.234 0.175781 134.578C0.316406 133.898 0.515625 133.195 0.773438 132.469L14.5195 94.6758C14.7773 93.9492 15.1172 93.1992 15.5391 92.4258C15.9609 91.6523 16.4297 90.9492 16.9453 90.3164C17.4844 89.6602 18.0586 89.1328 18.668 88.7344C19.3008 88.3125 19.9688 88.1016 20.6719 88.1016H52.6641C53.3672 88.1016 54.0234 87.9023 54.6328 87.5039C55.2656 87.082 55.8398 86.5547 56.3555 85.9219C56.8945 85.2891 57.375 84.5859 57.7969 83.8125C58.2188 83.0391 58.5586 82.2891 58.8164 81.5625L67.0781 58.8164C67.2891 58.2539 67.4414 57.7266 67.5352 57.2344C67.6289 56.7422 67.6758 56.3086 67.6758 55.9336C67.6758 55.7695 67.6523 55.5352 67.6055 55.2305C67.582 54.9023 67.4414 54.5859 67.1836 54.2812C66.9492 53.9531 66.5625 53.7891 66.0234 53.7891C65.1562 53.7891 64.3711 54.1758 63.668 54.9492C62.9648 55.6992 62.3086 56.707 61.6992 57.9727C61.0898 59.2148 60.5156 60.6328 59.9766 62.2266C59.4375 63.8203 58.8867 65.4609 58.3242 67.1484C57.7852 68.8125 57.2227 70.4414 56.6367 72.0352C56.0508 73.6289 55.418 75.0586 54.7383 76.3242C54.0586 77.5664 53.3086 78.5742 52.4883 79.3477C51.668 80.0977 50.7422 80.4727 49.7109 80.4727H23.4492C22.7461 80.4727 22.2305 80.2734 21.9023 79.875C21.5742 79.4531 21.3867 79.0312 21.3398 78.6094C21.293 78.1875 21.2695 77.8711 21.2695 77.6602C21.2695 77.2148 21.3281 76.6758 21.4453 76.043C21.5859 75.3867 21.7852 74.6953 22.043 73.9688L27.8086 58.1836C28.0664 57.457 28.3945 56.707 28.793 55.9336C29.2148 55.1602 29.6836 54.457 30.1992 53.8242C30.7383 53.1914 31.3125 52.6758 31.9219 52.2773C32.5547 51.8555 33.2227 51.6445 33.9258 51.6445H99.7031C100.406 51.6445 100.922 51.8555 101.25 52.2773C101.578 52.6758 101.766 53.0859 101.812 53.5078C101.859 53.9297 101.883 54.2461 101.883 54.457C101.883 54.9023 101.812 55.4531 101.672 56.1094C101.555 56.7656 101.367 57.457 101.109 58.1836L74.0742 132.469ZM35.8242 136.758C36.3633 136.758 36.8672 136.605 37.3359 136.301C37.8281 135.973 38.2734 135.574 38.6719 135.105C39.0703 134.613 39.4219 134.074 39.7266 133.488C40.0547 132.902 40.3242 132.34 40.5352 131.801L53.7188 95.5898C53.9062 95.0273 54.0469 94.5 54.1406 94.0078C54.2344 93.5156 54.2812 93.1055 54.2812 92.7773C54.2812 92.5898 54.2578 92.3438 54.2109 92.0391C54.1875 91.7109 54.0469 91.3945 53.7891 91.0898C53.5547 90.7852 53.168 90.6328 52.6289 90.6328C52.1133 90.6328 51.6094 90.7852 51.1172 91.0898C50.6484 91.3945 50.2148 91.793 49.8164 92.2852C49.418 92.7539 49.0547 93.2812 48.7266 93.8672C48.4219 94.4531 48.1758 95.0273 47.9883 95.5898L34.8047 131.801C34.5938 132.34 34.4297 132.867 34.3125 133.383C34.2188 133.875 34.1719 134.297 34.1719 134.648C34.1719 134.812 34.1836 135.047 34.207 135.352C34.2539 135.656 34.4062 135.973 34.6641 136.301C34.9219 136.605 35.3086 136.758 35.8242 136.758ZM123.996 6.85547C124.207 6.29297 124.477 5.625 124.805 4.85156C125.156 4.05469 125.566 3.30469 126.035 2.60156C126.504 1.875 127.008 1.26562 127.547 0.773438C128.109 0.257813 128.707 0 129.34 0C129.809 0 130.207 0.128906 130.535 0.386719C130.887 0.644531 131.18 0.9375 131.414 1.26562L146.777 22.6406C147.387 23.4844 147.797 24.5039 148.008 25.6992C148.242 26.8711 148.324 28.1484 148.254 29.5312C148.207 30.8906 148.02 32.3086 147.691 33.7852C147.363 35.2383 146.953 36.6445 146.461 38.0039L112.887 128.812C112.465 129.961 111.914 131.156 111.234 132.398C110.555 133.641 109.781 134.777 108.914 135.809C108.07 136.84 107.145 137.684 106.137 138.34C105.129 138.996 104.062 139.324 102.938 139.324H81.2109C80.4609 139.324 79.8516 139.172 79.3828 138.867C78.9141 138.562 78.5508 138.152 78.293 137.637C78.0352 137.121 77.8711 136.512 77.8008 135.809C77.7305 135.105 77.7422 134.367 77.8359 133.594C77.9297 132.82 78.082 132.023 78.293 131.203C78.5039 130.383 78.75 129.586 79.0312 128.812L123.996 6.85547ZM190.301 52.7344C190.16 53.1328 189.938 53.543 189.633 53.9648C189.328 54.3867 188.977 54.5977 188.578 54.5977H184.254C183.129 54.5977 182.062 54.9258 181.055 55.582C180.047 56.2383 179.121 57.082 178.277 58.1133C177.434 59.1211 176.672 60.2461 175.992 61.4883C175.336 62.707 174.797 63.9023 174.375 65.0742L131.027 184.219C130.816 184.781 130.535 185.449 130.184 186.223C129.855 187.02 129.457 187.77 128.988 188.473C128.543 189.176 128.039 189.773 127.477 190.266C126.938 190.781 126.352 191.039 125.719 191.039C125.25 191.039 124.852 190.91 124.523 190.652C124.195 190.395 123.902 190.102 123.645 189.773L108.352 168.398C107.742 167.555 107.32 166.535 107.086 165.34C106.852 164.145 106.77 162.844 106.84 161.438C106.887 160.055 107.074 158.625 107.402 157.148C107.73 155.695 108.141 154.289 108.633 152.93L156.48 21.4102C156.902 20.2383 157.441 19.0313 158.098 17.7891C158.777 16.5469 159.539 15.4219 160.383 14.4141C161.227 13.3828 162.152 12.5391 163.16 11.8828C164.168 11.2266 165.234 10.8984 166.359 10.8984H204.926C205.16 10.8984 205.277 11.0273 205.277 11.2852C205.277 11.5195 205.23 11.7422 205.137 11.9531C205.066 12.1875 204.938 12.4336 204.75 12.6914C204.586 12.9258 204.387 13.043 204.152 13.043H199.371C198.246 13.043 197.18 13.3711 196.172 14.0273C195.164 14.6836 194.238 15.5273 193.395 16.5586C192.551 17.5898 191.789 18.7266 191.109 19.9688C190.453 21.1875 189.914 22.3828 189.492 23.5547L183.375 40.4297C182.953 41.6016 182.613 42.8086 182.355 44.0508C182.121 45.293 182.051 46.4297 182.145 47.4609C182.262 48.4687 182.578 49.3008 183.094 49.957C183.633 50.6133 184.465 50.9414 185.59 50.9414H189.914C190.102 50.9414 190.242 51 190.336 51.1172C190.43 51.2344 190.488 51.3867 190.512 51.5742C190.535 51.7383 190.523 51.9258 190.477 52.1367C190.43 52.3477 190.371 52.5469 190.301 52.7344ZM239.238 132.469C238.98 133.195 238.641 133.945 238.219 134.719C237.797 135.492 237.316 136.195 236.777 136.828C236.262 137.461 235.688 137.988 235.055 138.41C234.445 138.809 233.789 139.008 233.086 139.008H167.309C166.605 139.008 166.09 138.809 165.762 138.41C165.434 137.988 165.246 137.578 165.199 137.18C165.176 136.758 165.164 136.465 165.164 136.301C165.164 135.809 165.223 135.234 165.34 134.578C165.48 133.898 165.68 133.195 165.938 132.469L179.684 94.6758C179.941 93.9492 180.281 93.1992 180.703 92.4258C181.125 91.6523 181.594 90.9492 182.109 90.3164C182.648 89.6602 183.223 89.1328 183.832 88.7344C184.465 88.3125 185.133 88.1016 185.836 88.1016H217.828C218.531 88.1016 219.188 87.9023 219.797 87.5039C220.43 87.082 221.004 86.5547 221.52 85.9219C222.059 85.2891 222.539 84.5859 222.961 83.8125C223.383 83.0391 223.723 82.2891 223.98 81.5625L232.242 58.8164C232.453 58.2539 232.605 57.7266 232.699 57.2344C232.793 56.7422 232.84 56.3086 232.84 55.9336C232.84 55.7695 232.816 55.5352 232.77 55.2305C232.746 54.9023 232.605 54.5859 232.348 54.2812C232.113 53.9531 231.727 53.7891 231.188 53.7891C230.32 53.7891 229.535 54.1758 228.832 54.9492C228.129 55.6992 227.473 56.707 226.863 57.9727C226.254 59.2148 225.68 60.6328 225.141 62.2266C224.602 63.8203 224.051 65.4609 223.488 67.1484C222.949 68.8125 222.387 70.4414 221.801 72.0352C221.215 73.6289 220.582 75.0586 219.902 76.3242C219.223 77.5664 218.473 78.5742 217.652 79.3477C216.832 80.0977 215.906 80.4727 214.875 80.4727H188.613C187.91 80.4727 187.395 80.2734 187.066 79.875C186.738 79.4531 186.551 79.0312 186.504 78.6094C186.457 78.1875 186.434 77.8711 186.434 77.6602C186.434 77.2148 186.492 76.6758 186.609 76.043C186.75 75.3867 186.949 74.6953 187.207 73.9688L192.973 58.1836C193.23 57.457 193.559 56.707 193.957 55.9336C194.379 55.1602 194.848 54.457 195.363 53.8242C195.902 53.1914 196.477 52.6758 197.086 52.2773C197.719 51.8555 198.387 51.6445 199.09 51.6445H264.867C265.57 51.6445 266.086 51.8555 266.414 52.2773C266.742 52.6758 266.93 53.0859 266.977 53.5078C267.023 53.9297 267.047 54.2461 267.047 54.457C267.047 54.9023 266.977 55.4531 266.836 56.1094C266.719 56.7656 266.531 57.457 266.273 58.1836L239.238 132.469ZM200.988 136.758C201.527 136.758 202.031 136.605 202.5 136.301C202.992 135.973 203.438 135.574 203.836 135.105C204.234 134.613 204.586 134.074 204.891 133.488C205.219 132.902 205.488 132.34 205.699 131.801L218.883 95.5898C219.07 95.0273 219.211 94.5 219.305 94.0078C219.398 93.5156 219.445 93.1055 219.445 92.7773C219.445 92.5898 219.422 92.3438 219.375 92.0391C219.352 91.7109 219.211 91.3945 218.953 91.0898C218.719 90.7852 218.332 90.6328 217.793 90.6328C217.277 90.6328 216.773 90.7852 216.281 91.0898C215.812 91.3945 215.379 91.793 214.98 92.2852C214.582 92.7539 214.219 93.2812 213.891 93.8672C213.586 94.4531 213.34 95.0273 213.152 95.5898L199.969 131.801C199.758 132.34 199.594 132.867 199.477 133.383C199.383 133.875 199.336 134.297 199.336 134.648C199.336 134.812 199.348 135.047 199.371 135.352C199.418 135.656 199.57 135.973 199.828 136.301C200.086 136.605 200.473 136.758 200.988 136.758Z" fill="black"/>
</svg>
