<svg width="96" height="114" viewBox="0 0 96 114" fill="none" xmlns="http://www.w3.org/2000/svg">
<path d="M43.8387 28.3782C44.2529 24.8563 44.7974 22.8439 47.5105 19.0437C52.3339 13.3125 56.0202 12.7063 62.3578 11.6641L62.4202 11.6539C71.3214 11.1538 75.5496 15.4877 77.6636 20.266C79.7777 25.0444 79.4656 33.4344 78.8319 37.9349C78.1982 42.4355 75.6609 54.229 61.2519 65.8416C65.2018 67.2306 65.555 67.0101 70.32 67.7164C74.882 62.8825 77.4892 59.3103 84.0614 51.4922C90.6337 43.674 94.3729 32.8232 95.4105 26.1557C96.4481 19.4882 96.6901 11.6539 91.1824 5.98648C85.6747 0.319097 74.8263 -0.625446 68.1504 0.3191C61.4744 1.26365 49.7915 5.98648 41.6691 12.4873C33.5466 18.9881 29.7636 26.1557 26.7594 35.8235C23.7552 45.4914 25.485 53.422 29.2073 63.327C35.5283 76.3361 43.2824 85.1631 50.014 89.4969C56.7456 93.8308 61.4744 96.1644 68.8736 108.499C77.9974 94.1086 81.5956 88.6851 88.6233 80.4958C84.0614 74.9395 78.1643 71.7923 66.5926 70.2167C55.0209 68.6411 51.295 64.9161 49.1239 64.8272C46.9528 64.7383 44.4507 64.716 43.6719 64.4938C42.893 64.2715 42.6765 64.24 42.0585 62.8825C41.3916 60.4824 42.0585 56.9929 42.0585 56.4928C42.0585 55.9927 41.0015 55.326 41.0015 54.6592C41.0015 53.9925 41.3571 53.5965 42.1141 53.2146C42.1141 53.2146 40.3895 52.27 40.3895 51.4922C40.3895 50.7143 41.1683 47.7695 41.0015 47.1027C40.8346 46.436 36.8846 45.6026 37.6078 44.269C38.3311 42.9355 43.9753 36.1149 44.6732 34.7123C45.3711 33.3097 43.9372 31.7238 43.8387 28.3782Z" fill="#F8F8F8"/>
<path d="M38.4424 85.9409C25.5812 93.475 17.0034 97.8423 6.23089 100.832L0 114C6.23089 113.555 27.594 103.276 44.3395 91.0527L38.4424 85.9409Z" fill="#F8F8F8"/>
</svg>
